<?xml version="1.0" encoding="utf-8" ?><svg xmlns="http://www.w3.org/2000/svg" xmlns:xlink="http://www.w3.org/1999/xlink" width="1601" height="1006" viewBox="0 0 1601 1006"><path fill="#053C63" transform="matrix(0.390869 0 0 0.390831 0.000244141 0)" d="M1155.51 1079.61C1228.18 1018.47 1298.47 947.601 1366.23 883.925L1681.37 589.903C1727.57 546.673 1771.86 502.683 1820.59 460.471C1837.58 445.751 1857.54 425.392 1875.25 411.783C1881.13 416.842 1884.54 420.496 1889.53 425.867C1881.54 423.875 1881.65 422.801 1875.91 424.322C1873.51 427.656 1874.96 463.757 1874.75 471.897C1872.1 548.433 1871.48 624.992 1872.87 701.542C1872.99 712.456 1872.34 760.753 1875.43 767.423C1857.58 776.319 1744.74 888.789 1723.2 909.051L1332.63 1275.37L1100.29 1493.19C1070.34 1520.63 1040.96 1548.3 1012.14 1576.2C999.174 1588.57 982.088 1603.13 971.139 1615.78C1227.59 1622.73 1336.13 1529 1476.7 1410.98C1590.73 1315.25 1724.98 1169.17 1944.47 1173.51C2154.2 1179.71 2245.52 1321.58 2281.91 1430.66C2231.45 1397.64 2178.16 1359.6 2099.17 1358.28C2055.64 1357.68 2013.52 1367.97 1982.05 1386.88C1903.24 1434.13 1870.72 1520.39 1867.09 1587.15C1861.09 1697.65 1924.2 1809.81 2048.07 1889.92C2074.58 1906.84 2103.28 1922.36 2133.88 1936.3L2155.71 1945.96C2241.37 1975.54 2330.14 1992.67 2429.12 1990.71C2438.84 1990.52 2465.64 1989.72 2474.67 1988.38C2491.09 1988 2506.86 1986.06 2522.96 1984.15C2726.51 1959.96 2884.81 1878.48 3010.27 1778.75C3043.92 1752 3078.58 1717.93 3109.04 1689C3130.53 1666.25 3151.82 1644.44 3172.74 1621.42C3192.99 1599.15 3219.78 1562.52 3242.75 1542.73C3230.25 1574.87 3221.54 1605.09 3207.88 1638.16C3123.35 1842.7 2976.1 2048.12 2677.66 2162.32C2630.57 2180.08 2580.57 2194.58 2528.52 2205.57C2484.77 2213.63 2452.67 2218.65 2407.36 2223.35C2376.12 2226.13 2344.74 2228.24 2313.27 2229.67C2305.76 2229.03 2291.43 2229.12 2283.38 2229.01C2224.01 2228.19 2167.57 2220.58 2109.26 2213.92C2099.69 2210.62 2050.95 2204.18 2035.26 2200.56C1965.24 2184.55 1897.85 2164.33 1834.03 2140.16C1709.56 2093.17 1601.1 2034.34 1486.95 1979.5C1435.07 1954.49 1381.47 1930.94 1326.28 1908.91C1317.24 1900.74 1286.17 1889.51 1271.79 1884.36C1165.49 1846.26 1051.01 1814.37 929.285 1803.42C733.064 1785.76 544.7 1817.45 377.903 1882.6C331.232 1900.52 293.146 1919.03 249.942 1939.62C273.165 1909.94 429.31 1778.06 431.319 1761.96C445.727 1745.03 489.917 1705.91 507.79 1689.26L654.647 1551.72C703.981 1504.39 753.888 1457.29 804.365 1410.44C825.289 1390.8 855.272 1359.16 879.598 1343.17L879.054 1023C879.066 962.906 876.64 896.18 879.1 836.825C970.485 836.155 1063.74 836.738 1155.27 836.862C1157.41 859.35 1156 892.191 1156.01 915.765L1155.51 1079.61Z"/><path fill="#07263E" transform="matrix(0.390869 0 0 0.390831 0.000244141 0)" d="M3109.04 1689C3116.29 1714.08 2952.68 1832.34 2916.69 1852.84C2879.06 1874.26 2843.73 1902.65 2798.26 1919.41C2721.63 1946.46 2615.54 1983.98 2529.75 1993.34C2412.59 2006.13 2265.89 1996.83 2165.66 1954.69C2159.56 1952.05 2157.93 1950.38 2155.71 1945.96C2241.37 1975.54 2330.14 1992.67 2429.12 1990.71C2438.84 1990.52 2465.64 1989.72 2474.67 1988.38C2491.09 1988 2506.86 1986.06 2522.96 1984.15C2726.51 1959.96 2884.81 1878.48 3010.27 1778.75C3043.92 1752 3078.58 1717.93 3109.04 1689Z"/><path fill="#1E8D79" transform="matrix(0.390869 0 0 0.390831 0.000244141 0)" d="M3745.65 512.037C3764.45 506.336 3813.33 492.063 3831.83 488.426C3829.72 513.813 3823.14 544.523 3818.82 570.115L3792.3 726.664L3699.08 1263.59C3644.49 1216.63 3592.14 1168.93 3539.96 1120.93C3532.39 1113.96 3524.1 1106.77 3515.99 1100.04C3478.69 1138.01 3443.54 1176.8 3410.61 1216.34L3400.09 1227.98C3381.41 1251.7 3355.18 1278.08 3334.14 1301.59L3206.15 1445.04C3191.3 1461.51 3149.58 1505.1 3138.7 1520.55C3132.32 1527.45 3126.07 1534.4 3119.98 1541.4L3106.81 1557.14C3100.15 1564.59 3093.1 1572.85 3086.08 1580.08C3002.2 1670.62 2919.01 1750.13 2784.11 1815.16C2756.98 1827.62 2733.57 1837.77 2705.79 1849.4C2590.28 1887.94 2461.21 1914.56 2330.17 1897.13C2244.65 1885.77 2156.72 1858.99 2098.27 1817.56C2089.15 1811.56 2083.68 1808.18 2076.31 1801.28C2067.55 1795.73 2056.91 1786.24 2049.16 1779.71C2027.95 1759.38 2017.21 1745.43 2002.14 1723.66C2019.33 1730.46 2032.05 1741.37 2047.52 1747.62C2090.18 1771.78 2164.3 1784.7 2222.07 1782.82C2253.9 1781.89 2285.2 1777.34 2314.45 1769.39L2318.23 1768.11C2347.33 1762.13 2389.53 1744.57 2413.8 1732.46C2441.26 1722.33 2487.99 1692.08 2510.5 1676.47C2606.85 1609.66 2675.4 1528.03 2745.54 1450L2958.5 1210.69L3159.59 983.717C3190.75 948.862 3233.84 906.118 3260.63 871.393C3235.51 847.127 3205.48 821.935 3178.75 798.082L3076.26 705.217C3110.86 693.107 3176.74 678.157 3217.24 665.844C3392.5 613.39 3568.64 562.119 3745.65 512.037Z"/><path fill="#053C63" transform="matrix(0.390869 0 0 0.390831 0.000244141 0)" d="M3745.65 512.037C3764.45 506.336 3813.33 492.063 3831.83 488.426C3829.72 513.813 3823.14 544.523 3818.82 570.115L3792.3 726.664L3699.08 1263.59C3644.49 1216.63 3592.14 1168.93 3539.96 1120.93C3532.39 1113.96 3524.1 1106.77 3515.99 1100.04C3478.69 1138.01 3443.54 1176.8 3410.61 1216.34L3400.09 1227.98C3381.41 1251.7 3355.18 1278.08 3334.14 1301.59L3206.15 1445.04C3191.3 1461.51 3149.58 1505.1 3138.7 1520.55C3132.32 1527.45 3126.07 1534.4 3119.98 1541.4L3106.81 1557.14C3100.15 1564.59 3093.1 1572.85 3086.08 1580.08C3002.2 1670.62 2919.01 1750.13 2784.11 1815.16C2756.98 1827.62 2733.57 1837.77 2705.79 1849.4C2590.28 1887.94 2461.21 1914.56 2330.17 1897.13C2244.65 1885.77 2156.72 1858.99 2098.27 1817.56C2089.15 1811.56 2083.68 1808.18 2076.31 1801.28C2086.95 1803.45 2105.34 1816.96 2116.66 1821.69C2167.29 1842.99 2231.67 1855.48 2292.87 1856.56C2578.23 1861.59 2756.89 1684.07 2890.34 1550.6C2924.68 1516.25 2951.51 1482.97 2982.2 1448.44L3134.07 1278.35L3635.98 709.798C3689.06 650.67 3741.1 591.172 3792.08 531.315C3796.27 526.445 3824.76 498.643 3824.88 496.719L3821.99 495.514C3801.91 498.778 3777.36 510.931 3755.48 513.67C3749.03 514.477 3752.41 514.729 3745.65 512.037Z"/><path fill="#1E8D79" transform="matrix(0.390869 0 0 0.390831 0.000244141 0)" d="M1875.43 767.423C1872.34 760.753 1872.99 712.456 1872.87 701.542C1871.48 624.992 1872.1 548.433 1874.75 471.897C1874.96 463.757 1873.51 427.656 1875.91 424.322C1881.65 422.801 1881.54 423.875 1889.53 425.867C1895.98 431.032 1901.5 436.645 1907.48 442.029C1957.28 486.899 2005.58 532.42 2054.31 577.748L2383.8 887.097L2618.79 1108.44L2726.63 1210.13C2743.42 1226.09 2768.69 1248.57 2783.59 1264.68C2751.32 1303.25 2716.72 1342.23 2682.98 1380.32C2665.56 1399.99 2631.49 1442.74 2612.07 1459.72C2594.69 1447.32 2563.01 1416.13 2547.16 1401.15L2427.22 1287.2L2067.21 947.215C2005.46 888.719 1939.87 824.117 1875.43 767.423Z"/><path fill="#1E8D79" transform="matrix(0.390869 0 0 0.390831 0.000244141 0)" d="M248.136 2060.71C286.121 2043.1 317.659 2021.99 357.756 2005.38C521.146 1937.71 716.565 1890.83 914.916 1910.89C1348.74 1954.76 1602.84 2214.52 2007.02 2301.33C2161.33 2334.47 2270.12 2342.26 2431.12 2324.75C2403.04 2335.2 2381.46 2344.52 2351.4 2353.6C2185.44 2403.71 2034.94 2412.93 1858.3 2384.54C1789.15 2373.29 1722.12 2357.42 1658.36 2337.2C1635.16 2329.88 1572.15 2305.98 1553.69 2303C1440.54 2258.2 1354.34 2212.01 1248.15 2164.06C1231.26 2150.14 1189.36 2135.27 1165.98 2124.98C997.557 2050.87 821.824 2006.29 614.352 2007.37C464.072 2008.15 384.387 2025.02 248.136 2060.71Z"/><path fill="#337163" fill-opacity="0.81960785" transform="matrix(0.390869 0 0 0.390831 0.000244141 0)" d="M746.941 1902.82C834.437 1898.36 879.335 1901.54 964.682 1912.1C1022.45 1921.6 1069.19 1929.47 1123.52 1945.3C1183.1 1963.71 1241.26 1983.88 1297.8 2005.75C1515.67 2096.25 1715.82 2223.06 1957.46 2284.67C2083.26 2319.83 2293.24 2345.21 2426.22 2320.01C2435.55 2319.23 2447.45 2317.94 2456.64 2318.04C2343.89 2369.39 2216.59 2397.47 2078.12 2405.16C1987.27 2410.2 1900.29 2396.72 1813.24 2381.85C1790.52 2376.81 1767.88 2371.64 1745.3 2366.34C1685.83 2349.41 1605.82 2327.67 1553.69 2303C1572.15 2305.98 1635.16 2329.88 1658.36 2337.2C1722.12 2357.42 1789.15 2373.29 1858.3 2384.54C2034.94 2412.93 2185.44 2403.71 2351.4 2353.6C2381.46 2344.52 2403.04 2335.2 2431.12 2324.75C2270.12 2342.26 2161.33 2334.47 2007.02 2301.33C1602.84 2214.52 1348.74 1954.76 914.916 1910.89C716.565 1890.83 521.146 1937.71 357.756 2005.38C317.659 2021.99 286.121 2043.1 248.136 2060.71C384.387 2025.02 464.072 2008.15 614.352 2007.37C821.824 2006.29 997.557 2050.87 1165.98 2124.98C1189.36 2135.27 1231.26 2150.14 1248.15 2164.06C1237.11 2160.91 1154.77 2124.76 1140.17 2118.55C1078.34 2092.43 1012.64 2070.11 943.991 2051.92C765.383 2004.61 566.139 1997.83 380.445 2032.75C323.941 2043.62 279.976 2056.88 226.285 2070.97C231.127 2067.07 237.031 2063.27 242.415 2059.63C341.753 2004.3 402.164 1976.74 524.301 1941.36C602.382 1921.71 663.743 1909.66 746.941 1902.82Z"/><path fill="#07263E" fill-opacity="0.74509805" transform="matrix(0.390869 0 0 0.390831 0.000244141 0)" d="M226.799 1952.87C242.699 1940.11 266.832 1915.9 282.128 1901.59C311.773 1874.45 341.001 1847.12 369.805 1819.62C386.921 1802.99 411.456 1776.78 431.319 1761.96C429.31 1778.06 273.165 1909.94 249.942 1939.62C293.146 1919.03 331.232 1900.52 377.903 1882.6C544.7 1817.45 733.064 1785.76 929.285 1803.42C1051.01 1814.37 1165.49 1846.26 1271.79 1884.36C1286.17 1889.51 1317.24 1900.74 1326.28 1908.91C1302.37 1900.74 1279.01 1890.71 1255.27 1882.16C1228.46 1872.49 1200.96 1863.92 1173.29 1855.39C991.734 1799.39 795.523 1786.55 600.399 1822.82C487.135 1843.88 386.385 1880.33 291.108 1924.18C285.202 1926.9 252.632 1943.13 249.636 1945.73C243.781 1948.51 233.84 1954.81 226.799 1952.87Z"/><path fill="#F5FDFE" fill-opacity="0.011764706" transform="matrix(0.390869 0 0 0.390831 0.000244141 0)" d="M1957.46 2284.67C1967.54 2284.3 1981.28 2283.48 1990.83 2285.48C2034.9 2294.71 2083.19 2280.99 2124.92 2297.86C2131.73 2300.61 2129.23 2307.18 2136.32 2311.16C2143.24 2312.07 2176.47 2317.45 2178.77 2317.64C2227.75 2322.01 2277.26 2323.6 2326.7 2322.38C2362.78 2321.56 2389.6 2317.99 2426.22 2320.01C2293.24 2345.21 2083.26 2319.83 1957.46 2284.67Z"/><path fill="#F5FDFE" fill-opacity="0.015686275" transform="matrix(0.390869 0 0 0.390831 0.000244141 0)" d="M242.415 2059.63C243.041 2054.11 246.035 2052.45 242.842 2048.4C237.309 2048 236.172 2048.1 231.072 2046.84L236.663 2046.25L238.806 2043.81C238.704 2039.56 238.492 2038.58 239.722 2034.31C258.733 2020.56 294.54 2016.79 317.974 2007.75C372.237 1986.81 412.624 1956.19 476.593 1946.8C498.354 1943.61 499.073 1940.62 524.301 1941.36C402.164 1976.74 341.753 2004.3 242.415 2059.63Z"/><path fill="#F5FDFE" fill-opacity="0.015686275" transform="matrix(0.390869 0 0 0.390831 0.000244141 0)" d="M2133.88 1936.3C2162.26 1934.91 2170.17 1946.38 2195.76 1951.17C2218.35 1955.41 2247.83 1952.94 2268.1 1959.43C2271.07 1962.44 2270.81 1962.31 2271.76 1965.85C2313 1981.26 2333.85 1976.71 2376.43 1983.21C2413.35 1988.84 2441.28 1985.43 2474.67 1988.38C2465.64 1989.72 2438.84 1990.52 2429.12 1990.71C2330.14 1992.67 2241.37 1975.54 2155.71 1945.96L2133.88 1936.3Z"/><path fill="#F5FDFE" fill-opacity="0.015686275" transform="matrix(0.390869 0 0 0.390831 0.000244141 0)" d="M2047.52 1747.62C2061.79 1747.28 2084.3 1754.27 2100.47 1755.65C2109.97 1756.46 2138.38 1759.05 2142.87 1762.85C2157.08 1774.85 2166.87 1761.74 2179.96 1772.31C2189.21 1772.61 2216.12 1773.61 2224.69 1772.78C2254.1 1769.92 2284.38 1767.83 2314.45 1769.39C2285.2 1777.34 2253.9 1781.89 2222.07 1782.82C2164.3 1784.7 2090.18 1771.78 2047.52 1747.62Z"/><path fill="#F5FDFE" fill-opacity="0.011764706" transform="matrix(0.390869 0 0 0.390831 0.000244141 0)" d="M1123.52 1945.3C1154.17 1944.25 1173.83 1948.88 1202.13 1955.79C1205.91 1956.71 1207.35 1955.26 1210.07 1953.92C1215.93 1957.26 1214.95 1958.57 1218.21 1962.38C1219.47 1963.84 1231.04 1962.96 1233.16 1963.06C1233.19 1963.06 1236.02 1968.65 1236.07 1968.68C1256.18 1981.06 1295.3 1987.92 1297.8 2005.75C1241.26 1983.88 1183.1 1963.71 1123.52 1945.3Z"/><path fill="#F5FDFE" fill-opacity="0.011764706" transform="matrix(0.390869 0 0 0.390831 0.000244141 0)" d="M2109.26 2213.92C2167.57 2220.58 2224.01 2228.19 2283.38 2229.01C2291.43 2229.12 2305.76 2229.03 2313.27 2229.67C2306.33 2233.91 2224.6 2230.81 2208.93 2230.52C2203.09 2230.41 2201.04 2233.26 2195.43 2236.87C2182.78 2238.43 2140.54 2238.35 2129.4 2235.58C2123.67 2231.38 2112.8 2219.26 2109.26 2213.92Z"/><path fill="#F5FDFE" fill-opacity="0.011764706" transform="matrix(0.390869 0 0 0.390831 0.000244141 0)" d="M2528.52 2205.57L2528.01 2206.63C2522.19 2218.88 2527.23 2223.98 2508.03 2229.98C2495.46 2233.9 2474.94 2239.36 2461.13 2236.98C2455.51 2233.46 2454.88 2231.32 2451.86 2226.54C2441.77 2221.57 2423.25 2224.72 2407.36 2223.35C2452.67 2218.65 2484.77 2213.63 2528.52 2205.57Z"/><path fill="#F5FDFE" fill-opacity="0.011764706" transform="matrix(0.390869 0 0 0.390831 0.000244141 0)" d="M746.941 1902.82C773.778 1888.08 927.177 1893.08 961.03 1907.19C961.789 1907.51 964.156 1911.26 964.682 1912.1C879.335 1901.54 834.437 1898.36 746.941 1902.82Z"/><path fill="#F5FDFE" fill-opacity="0.011764706" transform="matrix(0.390869 0 0 0.390831 0.000244141 0)" d="M2784.11 1815.16C2783.53 1822.28 2781.57 1823.36 2774.53 1829.11C2773.43 1832.04 2787.68 1847.42 2768.11 1853.38C2748.39 1859.39 2734.86 1848.05 2705.79 1849.4C2733.57 1837.77 2756.98 1827.62 2784.11 1815.16Z"/><path fill="#F5FDFE" fill-opacity="0.011764706" transform="matrix(0.390869 0 0 0.390831 0.000244141 0)" d="M2318.23 1768.11C2318.76 1764.49 2318.78 1761.49 2323.44 1759.51C2345.13 1750.26 2388.49 1732.06 2413.8 1732.46C2389.53 1744.57 2347.33 1762.13 2318.23 1768.11Z"/><path fill="#F5FDFE" fill-opacity="0.011764706" transform="matrix(0.390869 0 0 0.390831 0.000244141 0)" d="M2049.16 1779.71C2056.91 1786.24 2067.55 1795.73 2076.31 1801.28C2083.68 1808.18 2089.15 1811.56 2098.27 1817.56C2094.14 1817.38 2090.48 1816.95 2086.73 1818.19C2053.95 1829 2048.88 1793.37 2049.16 1779.71Z"/><path fill="#F5FDFE" fill-opacity="0.011764706" transform="matrix(0.390869 0 0 0.390831 0.000244141 0)" d="M1745.3 2366.34C1767.88 2371.64 1790.52 2376.81 1813.24 2381.85C1796.21 2381.7 1771.7 2390.03 1762.02 2382.59C1762.4 2378.06 1763.36 2379.37 1760.65 2375.78C1749.99 2372.76 1748.91 2373.39 1745.3 2366.34Z"/><path fill="#F5FDFE" fill-opacity="0.015686275" transform="matrix(0.390869 0 0 0.390831 0.000244141 0)" d="M226.799 1952.87C233.84 1954.81 243.781 1948.51 249.636 1945.73C248.223 1951.45 249.088 1953.99 242.536 1957.03C240.572 1957.94 238.572 1958.81 236.538 1959.66L236.566 1961.57L242.515 1962.01C245.2 1966.04 244.391 1963.85 242.325 1969.25C229.881 1975.81 214.602 1967.02 217.12 1957.11C221.253 1954.23 221.097 1954.46 226.799 1952.87Z"/><path fill="#F5FDFE" fill-opacity="0.0078431377" transform="matrix(0.390869 0 0 0.390831 0.000244141 0)" d="M3119.98 1541.4C3126.07 1534.4 3132.32 1527.45 3138.7 1520.55C3138.92 1525.03 3137.33 1525.76 3141.67 1529.52C3147.63 1534.7 3152.45 1540.93 3144.49 1545.59C3135.99 1546.75 3138.47 1545.33 3134.35 1548.6C3123.34 1545.51 3137.72 1544.49 3119.98 1541.4Z"/><path fill="#F5FDFE" fill-opacity="0.015686275" transform="matrix(0.390869 0 0 0.390831 0.000244141 0)" d="M3106.81 1557.14C3106.87 1562.8 3108.97 1575.44 3104.92 1579.57C3096.04 1582.08 3097.22 1580.71 3086.08 1580.08C3093.1 1572.85 3100.15 1564.59 3106.81 1557.14Z"/><path fill="#F5FDFE" fill-opacity="0.019607844" transform="matrix(0.390869 0 0 0.390831 0.000244141 0)" d="M3400.09 1227.98L3410.61 1216.34L3411.1 1224.76C3419.61 1226.07 3421.89 1227.12 3424.47 1232.79L3422.47 1234.44C3415.72 1233.3 3413.31 1231.42 3408.08 1228.51L3400.09 1227.98Z"/><path fill="#F5FDFE" fill-opacity="0.0078431377" transform="matrix(0.390869 0 0 0.390831 0.000244141 0)" d="M2702.1 2167.8L2704.8 2169.37C2703.51 2172.62 2697.39 2176.7 2693.74 2179.53L2687.32 2176.79L2686.66 2174.22C2690.08 2170.86 2696.12 2169.65 2702.1 2167.8Z"/><path fill="#F5FDFE" fill-opacity="0.0078431377" transform="matrix(0.390869 0 0 0.390831 0.000244141 0)" d="M2357.82 1259.02C2365.13 1258.67 2368.27 1258.82 2372.12 1262.45L2370.16 1266.19C2364.65 1266.31 2364.39 1266.02 2359.03 1264.94C2355.63 1261.49 2356.27 1263.37 2357.82 1259.02Z"/></svg>